<?xml version="1.0" encoding="UTF-8"?>
<!DOCTYPE svg PUBLIC "-//W3C//DTD SVG 1.1//EN" "http://www.w3.org/Graphics/SVG/1.1/DTD/svg11.dtd">
<svg xmlns="http://www.w3.org/2000/svg" version="1.1" width="1080px" height="1080px" style="shape-rendering:geometricPrecision; text-rendering:geometricPrecision; image-rendering:optimizeQuality; fill-rule:evenodd; clip-rule:evenodd" xmlns:xlink="http://www.w3.org/1999/xlink">
<g><path style="opacity:1" fill="#59b3c5" d="M 507.5,-0.5 C 528.833,-0.5 550.167,-0.5 571.5,-0.5C 716.878,10.4447 839.378,68.7781 939,174.5C 1023.66,269.195 1070.49,380.195 1079.5,507.5C 1079.5,528.833 1079.5,550.167 1079.5,571.5C 1067.95,721.428 1006.62,846.595 895.5,947C 802.358,1026.71 694.358,1070.88 571.5,1079.5C 550.167,1079.5 528.833,1079.5 507.5,1079.5C 338.273,1065.59 202.773,991.256 101,856.5C 40.6948,771.426 6.86147,676.759 -0.5,572.5C -0.5,550.5 -0.5,528.5 -0.5,506.5C 14.2954,330.728 93.2954,192.228 236.5,91C 318.671,36.4429 409.004,5.94292 507.5,-0.5 Z"/></g>
<g><path style="opacity:1" fill="#c7e5eb" d="M 857.5,200.5 C 644.43,200.168 431.43,200.501 218.5,201.5C 324.665,200.167 431.165,199.5 538,199.5C 644.667,199.5 751.167,199.833 857.5,200.5 Z"/></g>
<g><path style="opacity:1" fill="#fdfefe" d="M 857.5,200.5 C 863.203,201.254 868.536,202.921 873.5,205.5C 875.25,206.87 877.25,207.87 879.5,208.5C 893.012,215.846 903.346,226.346 910.5,240C 913.164,245.978 915.331,252.144 917,258.5C 917.667,446.167 917.667,633.833 917,821.5C 914.071,833.625 908.905,844.625 901.5,854.5C 898.118,857.215 895.118,860.215 892.5,863.5C 889.895,864.472 887.895,866.139 886.5,868.5C 880.218,872.386 873.552,875.719 866.5,878.5C 863.885,879.269 861.219,879.603 858.5,879.5C 645.167,880.833 431.833,880.833 218.5,879.5C 212.755,879.213 207.255,877.88 202,875.5C 180.051,864.256 166.051,846.589 160,822.5C 159.333,634.5 159.333,446.5 160,258.5C 165.734,234.341 179.734,216.674 202,205.5C 207.255,203.12 212.755,201.787 218.5,201.5C 431.43,200.501 644.43,200.168 857.5,200.5 Z"/></g>
<g><path style="opacity:1" fill="#97cfda" d="M 873.5,205.5 C 876.216,205.386 878.216,206.386 879.5,208.5C 877.25,207.87 875.25,206.87 873.5,205.5 Z"/></g>
<g><path style="opacity:1" fill="#5ab3c5" d="M 233.5,229.5 C 436.834,229.167 640.168,229.5 843.5,230.5C 870.276,233.066 884.776,247.733 887,274.5C 887.667,451.833 887.667,629.167 887,806.5C 884.465,832.869 869.965,847.536 843.5,850.5C 640.167,851.833 436.833,851.833 233.5,850.5C 212.696,849.062 198.696,838.728 191.5,819.5C 190.79,815.196 190.29,810.863 190,806.5C 189.333,629.167 189.333,451.833 190,274.5C 190.216,256.204 198.383,243.038 214.5,235C 220.982,232.796 227.315,230.963 233.5,229.5 Z"/></g>
<g><path style="opacity:1" fill="#9fd3dd" d="M 357.5,259.5 C 322.498,259.333 287.498,259.5 252.5,260C 251.095,261.269 249.429,261.769 247.5,261.5C 248.808,260.768 250.142,259.934 251.5,259C 287.002,258.169 322.336,258.336 357.5,259.5 Z"/></g>
<g><path style="opacity:1" fill="#fbfdfd" d="M 431.5,266.5 C 432.833,271.5 432.833,276.5 431.5,281.5C 429.691,284.139 427.358,286.306 424.5,288C 406.489,290.656 399.656,283.156 404,265.5C 405.833,263.667 407.667,261.833 409.5,260C 414.5,259.333 419.5,259.333 424.5,260C 427.358,261.694 429.691,263.861 431.5,266.5 Z"/></g>
<g><path style="opacity:1" fill="#eff8f9" d="M 829.5,261.5 C 711.447,260.174 593.447,260.174 475.5,261.5C 533.663,260.167 592.163,259.5 651,259.5C 709.5,259.667 768,259.833 826.5,260C 827.737,260.232 828.737,260.732 829.5,261.5 Z"/></g>
<g><path style="opacity:1" fill="#fefefe" d="M 357.5,259.5 C 360.887,260.887 363.221,263.22 364.5,266.5C 365.833,271.5 365.833,276.5 364.5,281.5C 362.831,283.865 360.831,286.032 358.5,288C 326.664,288.168 294.997,288.668 263.5,289.5C 260.017,289.327 257.017,290.327 254.5,292.5C 253.5,292.833 252.833,293.5 252.5,294.5C 251.503,294.47 250.836,294.97 250.5,296C 249.993,298.541 249.326,301.041 248.5,303.5C 248.167,338 247.833,372.5 247.5,407C 247.5,441.84 248.167,476.34 249.5,510.5C 248.512,517.302 251.178,521.636 257.5,523.5C 259.374,524.285 261.374,524.952 263.5,525.5C 330.331,526.499 397.331,526.832 464.5,526.5C 491.672,526.831 518.672,526.498 545.5,525.5C 555.773,524.856 566.107,524.189 576.5,523.5C 576.376,522.893 576.043,522.56 575.5,522.5C 573.282,515.525 570.282,508.858 566.5,502.5C 560.623,484.532 558.957,466.198 561.5,447.5C 562.255,444.947 562.922,442.28 563.5,439.5C 568.851,412.576 583.517,392.742 607.5,380C 611.369,376.466 614.869,372.633 618,368.5C 619.262,354.555 619.929,340.555 620,326.5C 621.164,317.401 623.164,308.401 626,299.5C 627.459,297.568 628.625,295.568 629.5,293.5C 630.434,292.432 630.768,291.099 630.5,289.5C 620.167,289.5 609.833,289.5 599.5,289.5C 599.5,289.167 599.5,288.833 599.5,288.5C 558.294,287.822 516.961,287.156 475.5,286.5C 468.269,280.493 466.769,273.16 471,264.5C 472.615,263.614 474.115,262.614 475.5,261.5C 593.447,260.174 711.447,260.174 829.5,261.5C 844.051,266.715 853.384,276.715 857.5,291.5C 857.667,368.501 857.5,445.501 857,522.5C 856.326,525.26 855.493,527.927 854.5,530.5C 852.984,533.936 851.317,537.269 849.5,540.5C 852.172,546.192 854.839,551.859 857.5,557.5C 857.5,634.833 857.5,712.167 857.5,789.5C 855.209,794.71 852.543,799.71 849.5,804.5C 848.326,805.514 847.66,806.847 847.5,808.5C 842.501,813.632 836.501,817.298 829.5,819.5C 769.02,820.152 708.687,820.818 648.5,821.5C 631.763,821.956 615.097,821.456 598.5,820C 584.146,814.478 574.813,804.311 570.5,789.5C 569.17,711.795 569.17,634.128 570.5,556.5C 568.997,555.948 567.331,555.948 565.5,556.5C 565.5,555.5 565.5,554.5 565.5,553.5C 546.992,553.17 528.659,553.503 510.5,554.5C 510.5,554.833 510.5,555.167 510.5,555.5C 508.5,555.5 506.5,555.5 504.5,555.5C 505.491,633.471 505.825,711.471 505.5,789.5C 501.119,802.125 493.119,811.625 481.5,818C 467.729,821.174 453.729,822.341 439.5,821.5C 375.646,820.819 311.646,820.153 247.5,819.5C 233.161,814.145 223.828,804.145 219.5,789.5C 219.5,712.5 219.5,635.5 219.5,558.5C 220.494,555.876 221.494,553.21 222.5,550.5C 224.177,547.146 225.844,543.813 227.5,540.5C 224.632,534.552 221.965,528.552 219.5,522.5C 219.5,445.5 219.5,368.5 219.5,291.5C 222.095,283.547 226.095,276.381 231.5,270C 236.724,266.889 242.058,264.055 247.5,261.5C 249.429,261.769 251.095,261.269 252.5,260C 287.498,259.5 322.498,259.333 357.5,259.5 Z"/></g>
<g><path style="opacity:1" fill="#d2eaef" d="M 364.5,266.5 C 367.167,271.5 367.167,276.5 364.5,281.5C 365.833,276.5 365.833,271.5 364.5,266.5 Z"/></g>
<g><path style="opacity:1" fill="#b8dee5" d="M 431.5,266.5 C 434.167,271.5 434.167,276.5 431.5,281.5C 432.833,276.5 432.833,271.5 431.5,266.5 Z"/></g>
<g><path style="opacity:1" fill="#f0f8f9" d="M 475.5,287.5 C 475.5,287.167 475.5,286.833 475.5,286.5C 516.961,287.156 558.294,287.822 599.5,288.5C 585.163,288.333 570.829,288.5 556.5,289C 555.956,289.717 555.289,290.217 554.5,290.5C 542.265,289.18 529.931,289.18 517.5,290.5C 503.796,288.813 489.796,287.813 475.5,287.5 Z"/></g>
<g><path style="opacity:1" fill="#f0f8f9" d="M 813.5,288.5 C 765.832,288.333 718.166,288.5 670.5,289C 669.956,289.717 669.289,290.217 668.5,290.5C 658.326,289.833 647.992,289.167 637.5,288.5C 696.332,287.169 754.999,287.169 813.5,288.5 Z"/></g>
<g><path style="opacity:1" fill="#9cd2dc" d="M 475.5,287.5 C 489.796,287.813 503.796,288.813 517.5,290.5C 517.167,290.5 516.833,290.5 516.5,290.5C 502.636,290.161 488.969,289.161 475.5,287.5 Z"/></g>
<g><path style="opacity:1" fill="#fcfdfd" d="M 554.5,290.5 C 549.692,295.709 545.692,301.542 542.5,308C 539.707,314.938 538.04,322.105 537.5,329.5C 536.815,342.068 536.149,354.735 535.5,367.5C 535.663,369.857 535.497,372.19 535,374.5C 533.212,377.748 532.045,381.248 531.5,385C 528.288,388.608 525.454,392.442 523,396.5C 517.139,402.52 510.305,407.186 502.5,410.5C 495.348,417.139 489.182,424.473 484,432.5C 481.629,438.422 479.629,444.422 478,450.5C 477.919,455.323 477.085,459.99 475.5,464.5C 476.806,471.346 478.473,478.013 480.5,484.5C 480.256,489.427 481.589,493.761 484.5,497.5C 487.026,501.566 489.193,505.899 491,510.5C 493.411,513.892 496.244,516.892 499.5,519.5C 500.134,521.567 501.134,523.4 502.5,525C 516.829,525.5 531.163,525.667 545.5,525.5C 518.672,526.498 491.672,526.831 464.5,526.5C 464.737,525.209 464.404,524.209 463.5,523.5C 463.167,523.5 462.833,523.5 462.5,523.5C 459.557,516.348 456.223,509.348 452.5,502.5C 446.623,484.532 444.957,466.198 447.5,447.5C 448.255,444.947 448.922,442.28 449.5,439.5C 454.851,412.576 469.517,392.742 493.5,380C 497.369,376.466 500.869,372.633 504,368.5C 505.262,354.555 505.929,340.555 506,326.5C 507.424,313.865 510.924,301.865 516.5,290.5C 516.833,290.5 517.167,290.5 517.5,290.5C 529.931,289.18 542.265,289.18 554.5,290.5 Z"/></g>
<g><path style="opacity:1" fill="#5ab3c5" d="M 599.5,288.5 C 599.5,288.833 599.5,289.167 599.5,289.5C 609.319,290.494 619.319,290.827 629.5,290.5C 629.5,291.5 629.5,292.5 629.5,293.5C 628.625,295.568 627.459,297.568 626,299.5C 623.164,308.401 621.164,317.401 620,326.5C 619.929,340.555 619.262,354.555 618,368.5C 614.869,372.633 611.369,376.466 607.5,380C 583.517,392.742 568.851,412.576 563.5,439.5C 561.631,441.635 560.964,444.302 561.5,447.5C 558.957,466.198 560.623,484.532 566.5,502.5C 570.282,508.858 573.282,515.525 575.5,522.5C 565.292,522.842 555.292,523.842 545.5,525.5C 531.163,525.667 516.829,525.5 502.5,525C 501.134,523.4 500.134,521.567 499.5,519.5C 496.244,516.892 493.411,513.892 491,510.5C 489.193,505.899 487.026,501.566 484.5,497.5C 484.19,492.75 482.857,488.417 480.5,484.5C 478.473,478.013 476.806,471.346 475.5,464.5C 477.085,459.99 477.919,455.323 478,450.5C 479.629,444.422 481.629,438.422 484,432.5C 489.182,424.473 495.348,417.139 502.5,410.5C 510.305,407.186 517.139,402.52 523,396.5C 525.454,392.442 528.288,388.608 531.5,385C 532.045,381.248 533.212,377.748 535,374.5C 535.497,372.19 535.663,369.857 535.5,367.5C 537.48,355.211 538.147,342.544 537.5,329.5C 538.04,322.105 539.707,314.938 542.5,308C 545.692,301.542 549.692,295.709 554.5,290.5C 555.289,290.217 555.956,289.717 556.5,289C 570.829,288.5 585.163,288.333 599.5,288.5 Z"/></g>
<g><path style="opacity:1" fill="#b8dee6" d="M 599.5,289.5 C 609.833,289.5 620.167,289.5 630.5,289.5C 630.768,291.099 630.434,292.432 629.5,293.5C 629.5,292.5 629.5,291.5 629.5,290.5C 619.319,290.827 609.319,290.494 599.5,289.5 Z"/></g>
<g><path style="opacity:1" fill="#5ab3c5" d="M 813.5,288.5 C 817.928,289.438 821.928,291.438 825.5,294.5C 827.129,297.266 827.795,300.266 827.5,303.5C 827.814,374.516 827.481,445.516 826.5,516.5C 826.5,516.833 826.5,517.167 826.5,517.5C 825.761,517.369 825.094,517.536 824.5,518C 822.79,519.651 821.456,521.484 820.5,523.5C 820.167,523.5 819.833,523.5 819.5,523.5C 751.474,524.82 683.474,524.82 615.5,523.5C 611.918,519.399 608.418,515.066 605,510.5C 603.193,505.899 601.026,501.566 598.5,497.5C 598.19,492.75 596.857,488.417 594.5,484.5C 592.473,478.013 590.806,471.346 589.5,464.5C 591.085,459.99 591.919,455.323 592,450.5C 593.629,444.422 595.629,438.422 598,432.5C 605.616,420.215 615.783,410.715 628.5,404C 631.011,401.157 633.844,398.657 637,396.5C 639.811,392.227 642.645,387.894 645.5,383.5C 647.499,378.236 648.832,372.903 649.5,367.5C 651.48,355.211 652.147,342.544 651.5,329.5C 652.04,322.105 653.707,314.938 656.5,308C 659.692,301.542 663.692,295.709 668.5,290.5C 669.289,290.217 669.956,289.717 670.5,289C 718.166,288.5 765.832,288.333 813.5,288.5 Z"/></g>
<g><path style="opacity:1" fill="#89c8d5" d="M 263.5,289.5 C 263.209,290.649 262.376,291.316 261,291.5C 258.863,292.077 256.696,292.41 254.5,292.5C 257.017,290.327 260.017,289.327 263.5,289.5 Z"/></g>
<g><path style="opacity:1" fill="#8dcad6" d="M 219.5,291.5 C 219.5,368.5 219.5,445.5 219.5,522.5C 218.167,484.339 217.5,445.839 217.5,407C 217.5,368.161 218.167,329.661 219.5,291.5 Z"/></g>
<g><path style="opacity:1" fill="#8dcad7" d="M 857.5,291.5 C 858.833,329.828 859.5,368.494 859.5,407.5C 859.167,446.167 858.833,484.833 858.5,523.5C 857.708,525.465 857.041,527.465 856.5,529.5C 856.043,530.298 855.376,530.631 854.5,530.5C 855.493,527.927 856.326,525.26 857,522.5C 857.5,445.501 857.667,368.501 857.5,291.5 Z"/></g>
<g><path style="opacity:1" fill="#8dcad7" d="M 252.5,294.5 C 251.577,297.777 250.744,301.11 250,304.5C 249.5,373.166 249.333,441.833 249.5,510.5C 248.167,476.34 247.5,441.84 247.5,407C 247.833,372.5 248.167,338 248.5,303.5C 249.326,301.041 249.993,298.541 250.5,296C 250.836,294.97 251.503,294.47 252.5,294.5 Z"/></g>
<g><path style="opacity:1" fill="#8ecad7" d="M 827.5,303.5 C 828.833,337.66 829.5,372.16 829.5,407C 829.333,441.5 829.167,476 829,510.5C 827.981,512.502 827.148,514.502 826.5,516.5C 827.481,445.516 827.814,374.516 827.5,303.5 Z"/></g>
<g><path style="opacity:1" fill="#f9fcfd" d="M 309.5,344.5 C 308.167,339.833 308.167,335.167 309.5,330.5C 310.942,329.18 311.608,327.514 311.5,325.5C 315.626,324.181 319.793,323.181 324,322.5C 335.727,324.584 340.393,331.584 338,343.5C 332.894,353.005 325.228,355.672 315,351.5C 311.834,350.172 310.001,347.839 309.5,344.5 Z"/></g>
<g><path style="opacity:1" fill="#fafcfd" d="M 433.5,348.5 C 431.236,342.313 430.902,335.98 432.5,329.5C 432.908,328.357 433.575,327.357 434.5,326.5C 443.577,320.847 451.91,321.847 459.5,329.5C 463.266,338.96 461.1,346.627 453,352.5C 447.467,353.846 441.967,353.68 436.5,352C 435.635,350.641 434.635,349.474 433.5,348.5 Z"/></g>
<g><path style="opacity:1" fill="#b8dee6" d="M 537.5,329.5 C 538.147,342.544 537.48,355.211 535.5,367.5C 536.149,354.735 536.815,342.068 537.5,329.5 Z"/></g>
<g><path style="opacity:1" fill="#b8dee6" d="M 651.5,329.5 C 652.147,342.544 651.48,355.211 649.5,367.5C 650.149,354.735 650.815,342.068 651.5,329.5 Z"/></g>
<g><path style="opacity:1" fill="#d6ecf0" d="M 432.5,329.5 C 430.902,335.98 431.236,342.313 433.5,348.5C 432.069,348.119 431.236,347.119 431,345.5C 430.333,340.833 430.333,336.167 431,331.5C 431.278,330.584 431.778,329.918 432.5,329.5 Z"/></g>
<g><path style="opacity:1" fill="#c5e4ea" d="M 309.5,330.5 C 308.167,335.167 308.167,339.833 309.5,344.5C 306.833,339.833 306.833,335.167 309.5,330.5 Z"/></g>
<g><path style="opacity:1" fill="#d8ecf1" d="M 739.5,351.5 C 727.11,350.274 714.777,350.274 702.5,351.5C 707.456,350.172 712.789,349.505 718.5,349.5C 723.833,349.667 729.167,349.833 734.5,350C 736.382,350.198 738.048,350.698 739.5,351.5 Z"/></g>
<g><path style="opacity:1" fill="#fdfefe" d="M 739.5,351.5 C 741.5,352.167 743.5,352.833 745.5,353.5C 748.733,355.708 752.4,357.374 756.5,358.5C 765.041,362.303 772.541,367.636 779,374.5C 782.003,381.059 785.17,387.392 788.5,393.5C 788.803,402.251 788.47,410.918 787.5,419.5C 784.161,431.173 778.828,441.84 771.5,451.5C 766.346,456.488 761.346,461.655 756.5,467C 753.379,468.617 750.379,470.451 747.5,472.5C 745.449,473.487 743.782,474.82 742.5,476.5C 736.697,478.653 731.03,480.986 725.5,483.5C 720.391,484.522 715.391,485.522 710.5,486.5C 709.207,487.158 707.707,487.492 706,487.5C 695.722,485.605 685.888,482.438 676.5,478C 660.826,464.539 651.659,447.373 649,426.5C 643.596,390.684 657.429,366.184 690.5,353C 694.466,352.172 698.466,351.672 702.5,351.5C 714.777,350.274 727.11,350.274 739.5,351.5 Z"/></g>
<g><path style="opacity:1" fill="#d6ecf0" d="M 745.5,353.5 C 748.71,354.172 751.876,355.172 755,356.5C 756.03,356.836 756.53,357.503 756.5,358.5C 752.4,357.374 748.733,355.708 745.5,353.5 Z"/></g>
<g><path style="opacity:1" fill="#fafcfd" d="M 377.5,405.5 C 373.069,405.769 368.735,405.436 364.5,404.5C 362.252,403.104 360.086,401.437 358,399.5C 352.54,385.81 356.873,377.477 371,374.5C 383.733,376.516 388.566,383.849 385.5,396.5C 383.444,400.213 380.777,403.213 377.5,405.5 Z"/></g>
<g><path style="opacity:1" fill="#5bb4c5" d="M 680.5,422.5 C 679.167,416.167 679.167,409.833 680.5,403.5C 681.911,400.325 683.078,396.991 684,393.5C 693.016,384.476 704.016,380.142 717,380.5C 721.521,380.596 726.021,380.929 730.5,381.5C 737.42,384.044 744.087,386.877 750.5,390C 755.787,394.435 758.121,400.102 757.5,407C 757.603,411.305 756.937,415.472 755.5,419.5C 744.245,438.113 728.245,450.446 707.5,456.5C 700.453,455.872 694.619,452.872 690,447.5C 684.42,440.145 681.253,431.811 680.5,422.5 Z"/></g>
<g><path style="opacity:1" fill="#9cd2dc" d="M 788.5,393.5 C 789.166,397.653 789.499,401.987 789.5,406.5C 789.492,411.222 788.825,415.555 787.5,419.5C 788.47,410.918 788.803,402.251 788.5,393.5 Z"/></g>
<g><path style="opacity:1" fill="#98d0db" d="M 364.5,404.5 C 368.735,405.436 373.069,405.769 377.5,405.5C 375.527,406.163 373.361,406.496 371,406.5C 368.39,406.467 366.223,405.8 364.5,404.5 Z"/></g>
<g><path style="opacity:1" fill="#bbdfe7" d="M 680.5,403.5 C 679.167,409.833 679.167,416.167 680.5,422.5C 679.182,419.742 678.515,416.576 678.5,413C 678.515,409.424 679.182,406.258 680.5,403.5 Z"/></g>
<g><path style="opacity:1" fill="#dceff2" d="M 298.5,429.5 C 295.813,429.336 293.146,429.503 290.5,430C 287.478,431.511 284.478,433.011 281.5,434.5C 284.889,430.476 289.222,428.143 294.5,427.5C 296.333,427.585 297.666,428.252 298.5,429.5 Z"/></g>
<g><path style="opacity:1" fill="#fcfdfe" d="M 298.5,429.5 C 303.332,429.711 306.332,432.044 307.5,436.5C 308.833,441.167 308.833,445.833 307.5,450.5C 305.923,453.749 303.59,456.416 300.5,458.5C 296.102,458.706 291.768,458.373 287.5,457.5C 284.202,456.036 281.702,453.703 280,450.5C 279.333,445.833 279.333,441.167 280,436.5C 280.278,435.584 280.778,434.918 281.5,434.5C 284.478,433.011 287.478,431.511 290.5,430C 293.146,429.503 295.813,429.336 298.5,429.5 Z"/></g>
<g><path style="opacity:1" fill="#b4dce4" d="M 307.5,436.5 C 308.805,438.397 309.471,440.731 309.5,443.5C 309.471,446.269 308.805,448.603 307.5,450.5C 308.833,445.833 308.833,441.167 307.5,436.5 Z"/></g>
<g><path style="opacity:1" fill="#a2d4de" d="M 449.5,439.5 C 448.922,442.28 448.255,444.947 447.5,447.5C 446.964,444.302 447.631,441.635 449.5,439.5 Z"/></g>
<g><path style="opacity:1" fill="#a2d4de" d="M 563.5,439.5 C 562.922,442.28 562.255,444.947 561.5,447.5C 560.964,444.302 561.631,441.635 563.5,439.5 Z"/></g>
<g><path style="opacity:1" fill="#badfe6" d="M 287.5,457.5 C 291.768,458.373 296.102,458.706 300.5,458.5C 296.689,459.645 292.689,459.812 288.5,459C 287.944,458.617 287.611,458.117 287.5,457.5 Z"/></g>
<g><path style="opacity:1" fill="#c2e3e9" d="M 381.5,462.5 C 376.142,461.488 370.809,461.488 365.5,462.5C 370.81,460.048 376.143,460.048 381.5,462.5 Z"/></g>
<g><path style="opacity:1" fill="#fbfdfd" d="M 381.5,462.5 C 385.326,464.877 387.659,468.211 388.5,472.5C 388.658,475.902 388.324,479.236 387.5,482.5C 385.112,488.771 380.446,491.771 373.5,491.5C 363.375,491.208 358.042,486.041 357.5,476C 357.846,470.132 360.513,465.632 365.5,462.5C 370.809,461.488 376.142,461.488 381.5,462.5 Z"/></g>
<g><path style="opacity:1" fill="#9bd1db" d="M 388.5,472.5 C 389.638,475.304 389.805,478.304 389,481.5C 388.617,482.056 388.117,482.389 387.5,482.5C 388.324,479.236 388.658,475.902 388.5,472.5 Z"/></g>
<g><path style="opacity:1" fill="#bee0e7" d="M 747.5,472.5 C 746.794,474.876 745.127,476.21 742.5,476.5C 743.782,474.82 745.449,473.487 747.5,472.5 Z"/></g>
<g><path style="opacity:1" fill="#94cdd9" d="M 725.5,483.5 C 724.77,485.045 723.437,485.878 721.5,486C 717.848,486.499 714.182,486.665 710.5,486.5C 715.391,485.522 720.391,484.522 725.5,483.5 Z"/></g>
<g><path style="opacity:1" fill="#93cdd9" d="M 480.5,484.5 C 482.857,488.417 484.19,492.75 484.5,497.5C 481.589,493.761 480.256,489.427 480.5,484.5 Z"/></g>
<g><path style="opacity:1" fill="#93cdd9" d="M 594.5,484.5 C 596.857,488.417 598.19,492.75 598.5,497.5C 595.589,493.761 594.256,489.427 594.5,484.5 Z"/></g>
<g><path style="opacity:1" fill="#b4dce4" d="M 826.5,517.5 C 825.167,520.167 823.167,522.167 820.5,523.5C 821.456,521.484 822.79,519.651 824.5,518C 825.094,517.536 825.761,517.369 826.5,517.5 Z"/></g>
<g><path style="opacity:1" fill="#9ed3dd" d="M 575.5,522.5 C 576.043,522.56 576.376,522.893 576.5,523.5C 566.107,524.189 555.773,524.856 545.5,525.5C 555.292,523.842 565.292,522.842 575.5,522.5 Z"/></g>
<g><path style="opacity:1" fill="#76c0cf" d="M 257.5,523.5 C 325.986,524.815 394.32,524.815 462.5,523.5C 462.833,523.5 463.167,523.5 463.5,523.5C 397.175,525.497 330.508,526.163 263.5,525.5C 261.374,524.952 259.374,524.285 257.5,523.5 Z"/></g>
<g><path style="opacity:1" fill="#76c0cf" d="M 615.5,524.5 C 615.5,524.167 615.5,523.833 615.5,523.5C 683.474,524.82 751.474,524.82 819.5,523.5C 817.626,524.285 815.626,524.952 813.5,525.5C 747.429,525.83 681.429,525.496 615.5,524.5 Z"/></g>
<g><path style="opacity:1" fill="#b9dee6" d="M 463.5,523.5 C 464.404,524.209 464.737,525.209 464.5,526.5C 397.331,526.832 330.331,526.499 263.5,525.5C 330.508,526.163 397.175,525.497 463.5,523.5 Z"/></g>
<g><path style="opacity:1" fill="#d0e9ee" d="M 615.5,524.5 C 681.429,525.496 747.429,525.83 813.5,525.5C 737.334,526.666 661.001,526.832 584.5,526C 595.008,525.83 605.341,525.33 615.5,524.5 Z"/></g>
<g><path style="opacity:1" fill="#9ed3dd" d="M 510.5,554.5 C 528.659,553.503 546.992,553.17 565.5,553.5C 565.5,554.5 565.5,555.5 565.5,556.5C 547.402,554.534 529.069,553.867 510.5,554.5 Z"/></g>
<g><path style="opacity:1" fill="#9cd1dc" d="M 222.5,550.5 C 221.494,553.21 220.494,555.876 219.5,558.5C 219.023,555.083 220.023,552.416 222.5,550.5 Z"/></g>
<g><path style="opacity:1" fill="#8ecad7" d="M 461.5,556.5 C 395.5,556.5 329.5,556.5 263.5,556.5C 296.16,555.167 329.16,554.5 362.5,554.5C 395.84,554.5 428.84,555.167 461.5,556.5 Z"/></g>
<g><path style="opacity:1" fill="#8dcad7" d="M 813.5,556.5 C 747.167,556.5 680.833,556.5 614.5,556.5C 647.327,555.167 680.493,554.5 714,554.5C 747.507,554.5 780.673,555.167 813.5,556.5 Z"/></g>
<g><path style="opacity:1" fill="#5bb3c5" d="M 263.5,556.5 C 329.5,556.5 395.5,556.5 461.5,556.5C 466.428,555.687 470.095,557.354 472.5,561.5C 472.557,565.029 473.557,568.029 475.5,570.5C 476.499,639.331 476.833,708.331 476.5,777.5C 475.049,782.501 472.049,786.667 467.5,790C 458.299,792.124 448.966,792.958 439.5,792.5C 380.429,792.829 321.429,792.496 262.5,791.5C 256.372,791.345 252.372,788.345 250.5,782.5C 249.519,711.849 249.186,641.182 249.5,570.5C 249.205,568.265 249.539,566.265 250.5,564.5C 252.5,561.833 254.833,559.5 257.5,557.5C 259.265,556.539 261.265,556.205 263.5,556.5 Z"/></g>
<g><path style="opacity:1" fill="#5ab3c5" d="M 614.5,556.5 C 680.833,556.5 747.167,556.5 813.5,556.5C 820.302,555.512 824.636,558.178 826.5,564.5C 827.481,635.484 827.814,706.484 827.5,777.5C 826.918,780.272 825.918,782.939 824.5,785.5C 823.064,787.083 821.398,788.583 819.5,790C 817.618,790.198 815.952,790.698 814.5,791.5C 759.238,792.496 703.905,792.829 648.5,792.5C 636.988,792.828 625.654,792.495 614.5,791.5C 614.209,790.351 613.376,789.684 612,789.5C 609.863,788.923 607.696,788.59 605.5,788.5C 603.262,787.147 601.929,785.147 601.5,782.5C 600.167,709.833 600.167,637.167 601.5,564.5C 603.555,561.778 605.889,559.445 608.5,557.5C 610.265,556.539 612.265,556.205 614.5,556.5 Z"/></g>
<g><path style="opacity:1" fill="#8cc9d6" d="M 608.5,557.5 C 605.889,559.445 603.555,561.778 601.5,564.5C 602.167,560.5 604.5,558.167 608.5,557.5 Z"/></g>
<g><path style="opacity:1" fill="#8dcad6" d="M 219.5,558.5 C 219.5,635.5 219.5,712.5 219.5,789.5C 218.167,751.339 217.5,712.839 217.5,674C 217.5,635.161 218.167,596.661 219.5,558.5 Z"/></g>
<g><path style="opacity:1" fill="#8fcbd7" d="M 510.5,555.5 C 509.048,556.302 507.382,556.802 505.5,557C 506.833,634.598 506.833,712.098 505.5,789.5C 505.825,711.471 505.491,633.471 504.5,555.5C 506.5,555.5 508.5,555.5 510.5,555.5 Z"/></g>
<g><path style="opacity:1" fill="#8dcad6" d="M 857.5,557.5 C 858.833,595.828 859.5,634.494 859.5,673.5C 859.5,712.506 858.833,751.172 857.5,789.5C 857.5,712.167 857.5,634.833 857.5,557.5 Z"/></g>
<g><path style="opacity:1" fill="#91ccd8" d="M 257.5,557.5 C 254.833,559.5 252.5,561.833 250.5,564.5C 251.167,560.5 253.5,558.167 257.5,557.5 Z"/></g>
<g><path style="opacity:1" fill="#86c7d4" d="M 472.5,561.5 C 474.982,563.503 475.982,566.169 475.5,569.5C 475.5,569.833 475.5,570.167 475.5,570.5C 473.557,568.029 472.557,565.029 472.5,561.5 Z"/></g>
<g><path style="opacity:1" fill="#e3f2f5" d="M 475.5,570.5 C 475.5,570.167 475.5,569.833 475.5,569.5C 476.833,603.827 477.5,638.494 477.5,673.5C 477.5,708.335 477.167,743.002 476.5,777.5C 476.833,708.331 476.499,639.331 475.5,570.5 Z"/></g>
<g><path style="opacity:1" fill="#8dcad7" d="M 249.5,570.5 C 249.186,641.182 249.519,711.849 250.5,782.5C 249.837,780.958 249.17,779.291 248.5,777.5C 248.167,743 247.833,708.5 247.5,674C 247.5,639.16 248.167,604.66 249.5,570.5 Z"/></g>
<g><path style="opacity:1" fill="#6abacb" d="M 601.5,564.5 C 600.167,637.167 600.167,709.833 601.5,782.5C 600.698,781.048 600.198,779.382 600,777.5C 599.333,708.167 599.333,638.833 600,569.5C 600.198,567.618 600.698,565.952 601.5,564.5 Z"/></g>
<g><path style="opacity:1" fill="#8ecad7" d="M 826.5,564.5 C 827.148,566.498 827.981,568.498 829,570.5C 829.167,605 829.333,639.5 829.5,674C 829.5,708.84 828.833,743.34 827.5,777.5C 827.814,706.484 827.481,635.484 826.5,564.5 Z"/></g>
<g><path style="opacity:1" fill="#fcfdfe" d="M 408.5,594.5 C 413.833,594.167 419.167,593.833 424.5,593.5C 427.867,593.457 431.201,593.79 434.5,594.5C 455.609,605.812 461.942,622.812 453.5,645.5C 451.484,649.177 448.818,652.177 445.5,654.5C 443.787,655.635 443.12,657.302 443.5,659.5C 444.5,659.5 445.5,659.5 446.5,659.5C 447.234,660.708 447.567,662.041 447.5,663.5C 448.93,663.421 450.264,663.754 451.5,664.5C 459.384,676.147 461.05,688.48 456.5,701.5C 454.386,702.784 453.386,704.784 453.5,707.5C 449.396,710.489 446.063,714.322 443.5,719C 438.075,721.732 433.075,724.899 428.5,728.5C 425.933,728.721 423.599,729.388 421.5,730.5C 418.241,731.671 415.241,733.338 412.5,735.5C 410.473,735.338 408.473,735.505 406.5,736C 404.881,736.236 403.881,737.069 403.5,738.5C 394.89,739.737 386.557,742.07 378.5,745.5C 367.023,747.025 355.69,749.025 344.5,751.5C 333.34,752.824 322.34,752.824 311.5,751.5C 307.693,748.793 303.36,747.46 298.5,747.5C 293.999,743.895 288.999,740.729 283.5,738C 281.611,734.084 278.944,730.917 275.5,728.5C 275.829,725.772 275.163,723.438 273.5,721.5C 271.476,718.942 270.309,715.942 270,712.5C 266.622,694.614 271.788,679.947 285.5,668.5C 282.167,667.833 280.167,665.833 279.5,662.5C 278.675,661.614 277.675,661.281 276.5,661.5C 274.797,656.899 272.797,652.399 270.5,648C 269.401,638.858 269.234,629.691 270,620.5C 272.805,616.253 274.305,611.586 274.5,606.5C 277.729,604.622 280.729,602.288 283.5,599.5C 284.708,598.766 286.041,598.433 287.5,598.5C 287.5,597.5 287.5,596.5 287.5,595.5C 291.307,596.226 293.974,594.893 295.5,591.5C 305.245,589.4 315.245,588.9 325.5,590C 331.556,592.649 337.056,596.149 342,600.5C 357.149,603.075 372.316,603.075 387.5,600.5C 394.201,597.356 401.201,595.356 408.5,594.5 Z"/></g>
<g><path style="opacity:1" fill="#fcfdfe" d="M 797.5,667.5 C 798.088,670.61 798.755,673.61 799.5,676.5C 800.622,680.666 801.622,684.999 802.5,689.5C 801.575,693.896 800.575,698.229 799.5,702.5C 798.732,704.715 798.065,707.048 797.5,709.5C 796.403,714.936 793.57,719.27 789,722.5C 788.506,724.134 788.34,725.801 788.5,727.5C 787.07,727.421 785.736,727.754 784.5,728.5C 780.943,730.48 777.943,733.146 775.5,736.5C 770.307,737.817 765.64,739.983 761.5,743C 750.818,743.832 740.151,743.666 729.5,742.5C 725.906,740.658 722.239,738.992 718.5,737.5C 714.702,738.313 711.369,739.979 708.5,742.5C 705.562,742.273 703.229,743.273 701.5,745.5C 698.807,745.572 696.14,745.905 693.5,746.5C 691.97,746.64 690.97,747.307 690.5,748.5C 689.081,749.451 687.415,749.784 685.5,749.5C 682.72,750.078 680.053,750.745 677.5,751.5C 672.167,752.833 666.833,752.833 661.5,751.5C 656.825,749.352 651.825,748.019 646.5,747.5C 645.412,746 644.079,744.667 642.5,743.5C 639.025,743.025 636.692,741.192 635.5,738C 634.207,737.51 632.873,737.343 631.5,737.5C 631.66,735.801 631.494,734.134 631,732.5C 629.294,731.692 628.461,730.359 628.5,728.5C 628.217,727.711 627.717,727.044 627,726.5C 626.327,717.811 626.493,709.144 627.5,700.5C 629.678,692.091 631.178,683.424 632,674.5C 633.161,673.005 634.327,671.505 635.5,670C 631.615,658.644 630.615,647.144 632.5,635.5C 634.346,633.97 635.346,631.97 635.5,629.5C 636.494,626.876 637.494,624.21 638.5,621.5C 641.48,620.171 642.813,617.837 642.5,614.5C 643.519,612.493 645.185,611.16 647.5,610.5C 648.386,609.675 648.719,608.675 648.5,607.5C 654.414,605.139 659.748,601.639 664.5,597C 668.424,596.74 672.091,595.74 675.5,594C 679.333,593.833 683.167,593.667 687,593.5C 694.475,593.786 701.808,594.786 709,596.5C 711.167,596.333 713.333,596.167 715.5,596C 725.828,591.689 736.661,589.856 748,590.5C 757.684,590.369 767.184,591.535 776.5,594C 781.519,595.713 786.019,598.213 790,601.5C 791.44,602.148 792.94,602.481 794.5,602.5C 794.5,603.5 794.5,604.5 794.5,605.5C 797.959,607.084 800.959,609.417 803.5,612.5C 805.667,616.167 807.833,619.833 810,623.5C 810.667,631.833 810.667,640.167 810,648.5C 807.694,652.436 805.36,656.436 803,660.5C 799.263,661.295 797.43,663.628 797.5,667.5 Z"/></g>
<g><path style="opacity:1" fill="#c6e4ea" d="M 424.5,593.5 C 419.167,593.833 413.833,594.167 408.5,594.5C 412.162,593.362 415.995,592.362 420,591.5C 421.986,591.569 423.486,592.235 424.5,593.5 Z"/></g>
<g><path style="opacity:1" fill="#b0dbe3" d="M 295.5,591.5 C 293.974,594.893 291.307,596.226 287.5,595.5C 287.5,596.5 287.5,597.5 287.5,598.5C 286.041,598.433 284.708,598.766 283.5,599.5C 283.821,597.952 284.821,597.285 286.5,597.5C 286.5,596.5 286.5,595.5 286.5,594.5C 288.199,594.66 289.866,594.494 291.5,594C 292.308,592.294 293.641,591.461 295.5,591.5 Z"/></g>
<g><path style="opacity:1" fill="#5cb4c6" d="M 334.5,624.5 C 336.438,626.163 338.772,626.829 341.5,626.5C 356.444,628.476 371.444,628.476 386.5,626.5C 390.122,626.678 393.456,626.011 396.5,624.5C 404.274,622.59 412.108,620.257 420,617.5C 424.458,618.632 428.125,620.965 431,624.5C 431.667,627.167 431.667,629.833 431,632.5C 427.76,635.08 424.593,637.747 421.5,640.5C 417.379,640.959 413.712,642.459 410.5,645C 395.708,649.541 380.708,653.041 365.5,655.5C 361.625,655.085 357.958,655.585 354.5,657C 342.171,657.5 329.838,657.667 317.5,657.5C 317.38,656.414 316.713,655.747 315.5,655.5C 310.757,654.903 306.424,653.569 302.5,651.5C 301.833,649.5 301.167,647.5 300.5,645.5C 299.5,645.5 298.5,645.5 297.5,645.5C 297.634,643.708 297.301,642.042 296.5,640.5C 295.635,635.933 295.635,631.267 296.5,626.5C 297.302,625.048 297.802,623.382 298,621.5C 303.186,616.366 309.353,614.366 316.5,615.5C 321.96,619.563 327.96,622.563 334.5,624.5 Z"/></g>
<g><path style="opacity:1" fill="#5eb5c6" d="M 780.5,626.5 C 780.821,628.048 781.821,628.715 783.5,628.5C 784.618,633.186 784.618,637.853 783.5,642.5C 781.22,646.422 778.887,646.255 776.5,642C 772.622,640.241 768.788,638.407 765,636.5C 760.788,635.864 756.621,635.198 752.5,634.5C 748.702,633.517 744.702,633.183 740.5,633.5C 740.737,632.209 740.404,631.209 739.5,630.5C 737.111,626.329 735.111,621.996 733.5,617.5C 744.843,616.222 756.176,616.389 767.5,618C 772.288,620.316 776.622,623.15 780.5,626.5 Z"/></g>
<g><path style="opacity:1" fill="#bee1e8" d="M 642.5,614.5 C 642.813,617.837 641.48,620.171 638.5,621.5C 639.81,619.17 641.143,616.836 642.5,614.5 Z"/></g>
<g><path style="opacity:1" fill="#5cb4c6" d="M 715.5,639.5 C 715.5,644.833 715.5,650.167 715.5,655.5C 714.519,658.421 713.685,661.421 713,664.5C 699.923,679.946 684.757,682.446 667.5,672C 664.054,668.406 661.054,664.573 658.5,660.5C 657.761,653.095 657.761,645.761 658.5,638.5C 660.954,635.67 662.621,632.337 663.5,628.5C 665.075,627.544 666.742,626.877 668.5,626.5C 670.262,624.3 672.596,623.133 675.5,623C 676.252,622.329 676.586,621.496 676.5,620.5C 689.342,617.042 700.509,620.042 710,629.5C 711.46,631.972 712.46,634.639 713,637.5C 713.708,638.381 714.542,639.047 715.5,639.5 Z"/></g>
<g><path style="opacity:1" fill="#b7dde5" d="M 676.5,620.5 C 676.586,621.496 676.252,622.329 675.5,623C 672.596,623.133 670.262,624.3 668.5,626.5C 668.511,624.983 669.177,623.816 670.5,623C 672.811,622.764 674.811,621.931 676.5,620.5 Z"/></g>
<g><path style="opacity:1" fill="#c3e3ea" d="M 334.5,624.5 C 337.067,624.721 339.401,625.388 341.5,626.5C 338.772,626.829 336.438,626.163 334.5,624.5 Z"/></g>
<g><path style="opacity:1" fill="#c1e2e9" d="M 396.5,624.5 C 393.456,626.011 390.122,626.678 386.5,626.5C 389.589,625.215 392.922,624.549 396.5,624.5 Z"/></g>
<g><path style="opacity:1" fill="#9cd1dc" d="M 638.5,621.5 C 637.494,624.21 636.494,626.876 635.5,629.5C 635.023,626.083 636.023,623.416 638.5,621.5 Z"/></g>
<g><path style="opacity:1" fill="#bde0e7" d="M 635.5,629.5 C 635.346,631.97 634.346,633.97 632.5,635.5C 632.654,633.03 633.654,631.03 635.5,629.5 Z"/></g>
<g><path style="opacity:1" fill="#89c8d5" d="M 296.5,626.5 C 295.635,631.267 295.635,635.933 296.5,640.5C 294.041,635.857 294.041,631.19 296.5,626.5 Z"/></g>
<g><path style="opacity:1" fill="#b7dee6" d="M 739.5,630.5 C 740.404,631.209 740.737,632.209 740.5,633.5C 744.702,633.183 748.702,633.517 752.5,634.5C 748.167,634.5 743.833,634.5 739.5,634.5C 739.5,633.167 739.5,631.833 739.5,630.5 Z"/></g>
<g><path style="opacity:1" fill="#97ceda" d="M 780.5,626.5 C 781.708,627.234 783.041,627.567 784.5,627.5C 785.229,630.28 785.896,633.113 786.5,636C 786.436,638.718 785.436,640.885 783.5,642.5C 784.618,637.853 784.618,633.186 783.5,628.5C 781.821,628.715 780.821,628.048 780.5,626.5 Z"/></g>
<g><path style="opacity:1" fill="#8ac9d5" d="M 715.5,639.5 C 717.542,644.899 717.542,650.232 715.5,655.5C 715.5,650.167 715.5,644.833 715.5,639.5 Z"/></g>
<g><path style="opacity:1" fill="#d8edf1" d="M 658.5,638.5 C 657.761,645.761 657.761,653.095 658.5,660.5C 656.155,653.142 656.155,645.809 658.5,638.5 Z"/></g>
<g><path style="opacity:1" fill="#add9e2" d="M 445.5,654.5 C 445.461,655.583 445.127,656.583 444.5,657.5C 445.243,658.182 445.909,658.849 446.5,659.5C 445.5,659.5 444.5,659.5 443.5,659.5C 443.12,657.302 443.787,655.635 445.5,654.5 Z"/></g>
<g><path style="opacity:1" fill="#e1f1f4" d="M 365.5,655.5 C 365.389,656.117 365.056,656.617 364.5,657C 348.692,658.682 333.025,658.848 317.5,657.5C 329.838,657.667 342.171,657.5 354.5,657C 357.958,655.585 361.625,655.085 365.5,655.5 Z"/></g>
<g><path style="opacity:1" fill="#a9d8e1" d="M 752.5,660.5 C 748.256,658.891 744.256,659.224 740.5,661.5C 740.5,660.5 740.5,659.5 740.5,658.5C 744.971,657.911 748.971,658.577 752.5,660.5 Z"/></g>
<g><path style="opacity:1" fill="#5cb4c6" d="M 752.5,660.5 C 759.505,661.327 764.839,664.661 768.5,670.5C 770.026,670.994 771.359,671.661 772.5,672.5C 772.802,675.373 773.469,678.039 774.5,680.5C 777.509,691.972 774.842,701.972 766.5,710.5C 765.264,711.246 763.93,711.579 762.5,711.5C 762.5,712.833 762.5,714.167 762.5,715.5C 757.202,716.616 751.869,717.616 746.5,718.5C 743.975,718.497 741.641,718.163 739.5,717.5C 736.509,716.629 733.509,715.629 730.5,714.5C 728.851,712.248 726.685,710.581 724,709.5C 722.33,706.346 720.497,703.346 718.5,700.5C 717.534,698.604 717.201,696.604 717.5,694.5C 718.675,694.719 719.675,694.386 720.5,693.5C 722.297,692.305 723.297,690.638 723.5,688.5C 724.675,688.719 725.675,688.386 726.5,687.5C 728.297,686.305 729.297,684.638 729.5,682.5C 730.5,682.5 731.5,682.5 732.5,682.5C 733.512,677.986 735.512,673.986 738.5,670.5C 739.117,670.389 739.617,670.056 740,669.5C 740.497,666.854 740.664,664.187 740.5,661.5C 744.256,659.224 748.256,658.891 752.5,660.5 Z"/></g>
<g><path style="opacity:1" fill="#a0d3dd" d="M 740.5,661.5 C 740.664,664.187 740.497,666.854 740,669.5C 739.617,670.056 739.117,670.389 738.5,670.5C 738.99,667.345 739.656,664.345 740.5,661.5 Z"/></g>
<g><path style="opacity:1" fill="#b6dde5" d="M 797.5,667.5 C 799.388,669.988 800.055,672.988 799.5,676.5C 798.755,673.61 798.088,670.61 797.5,667.5 Z"/></g>
<g><path style="opacity:1" fill="#c3e3ea" d="M 772.5,672.5 C 774.223,674.78 774.889,677.447 774.5,680.5C 773.469,678.039 772.802,675.373 772.5,672.5 Z"/></g>
<g><path style="opacity:1" fill="#5cb4c5" d="M 400.5,711.5 C 396.668,711.587 393.335,712.587 390.5,714.5C 387.414,715.747 384.248,717.08 381,718.5C 370.941,720.407 361.108,722.741 351.5,725.5C 338.122,726.05 324.789,726.05 311.5,725.5C 307.809,723.657 304.476,721.323 301.5,718.5C 299.741,714.706 298.075,711.04 296.5,707.5C 293.689,693.948 299.355,686.615 313.5,685.5C 317.617,685.136 321.284,686.136 324.5,688.5C 328.029,690.423 332.029,691.089 336.5,690.5C 340.605,691.109 344.605,691.775 348.5,692.5C 353.985,693.652 359.651,693.818 365.5,693C 366.056,692.617 366.389,692.117 366.5,691.5C 384.685,691.617 402.019,687.95 418.5,680.5C 422.5,679.167 426.5,679.167 430.5,680.5C 434.274,684.896 434.441,689.563 431,694.5C 428.957,695.579 427.624,697.246 427,699.5C 418.202,703.71 409.368,707.71 400.5,711.5 Z"/></g>
<g><path style="opacity:1" fill="#b3dbe4" d="M 324.5,688.5 C 328.605,689.109 332.605,689.775 336.5,690.5C 332.029,691.089 328.029,690.423 324.5,688.5 Z"/></g>
<g><path style="opacity:1" fill="#9bd1dc" d="M 366.5,691.5 C 366.389,692.117 366.056,692.617 365.5,693C 359.651,693.818 353.985,693.652 348.5,692.5C 354.559,692.746 360.559,692.413 366.5,691.5 Z"/></g>
<g><path style="opacity:1" fill="#5fb5c6" d="M 680.5,704.5 C 684.634,705.485 688.968,705.818 693.5,705.5C 693.263,706.791 693.596,707.791 694.5,708.5C 695.167,708.5 695.5,708.833 695.5,709.5C 695.721,712.067 696.388,714.401 697.5,716.5C 697.586,717.496 697.252,718.329 696.5,719C 688.029,723.283 679.029,726.116 669.5,727.5C 663.472,726.549 657.972,724.549 653,721.5C 652.5,719.5 652,717.5 651.5,715.5C 652.753,708.556 653.42,701.556 653.5,694.5C 660.292,697.032 666.959,699.865 673.5,703C 676.036,703.186 678.369,703.686 680.5,704.5 Z"/></g>
<g><path style="opacity:1" fill="#b4dce5" d="M 799.5,702.5 C 800.01,705.388 799.344,707.721 797.5,709.5C 798.065,707.048 798.732,704.715 799.5,702.5 Z"/></g>
<g><path style="opacity:1" fill="#a4d5df" d="M 680.5,704.5 C 685.167,704.5 689.833,704.5 694.5,704.5C 694.5,705.833 694.5,707.167 694.5,708.5C 693.596,707.791 693.263,706.791 693.5,705.5C 688.968,705.818 684.634,705.485 680.5,704.5 Z"/></g>
<g><path style="opacity:1" fill="#c3e3ea" d="M 456.5,701.5 C 455.87,703.75 454.87,705.75 453.5,707.5C 453.386,704.784 454.386,702.784 456.5,701.5 Z"/></g>
<g><path style="opacity:1" fill="#bfe2e8" d="M 627.5,700.5 C 626.493,709.144 626.327,717.811 627,726.5C 627.717,727.044 628.217,727.711 628.5,728.5C 627.504,728.586 626.671,728.252 626,727.5C 625.833,723.667 625.667,719.833 625.5,716C 625.281,710.568 625.948,705.401 627.5,700.5 Z"/></g>
<g><path style="opacity:1" fill="#8fcad7" d="M 296.5,707.5 C 298.075,711.04 299.741,714.706 301.5,718.5C 297.674,715.954 296.007,712.288 296.5,707.5 Z"/></g>
<g><path style="opacity:1" fill="#91ccd8" d="M 400.5,711.5 C 397.808,714.142 394.475,715.142 390.5,714.5C 393.335,712.587 396.668,711.587 400.5,711.5 Z"/></g>
<g><path style="opacity:1" fill="#c2e3e9" d="M 695.5,709.5 C 697.163,711.438 697.829,713.772 697.5,716.5C 696.388,714.401 695.721,712.067 695.5,709.5 Z"/></g>
<g><path style="opacity:1" fill="#c5e4ea" d="M 730.5,714.5 C 733.509,715.629 736.509,716.629 739.5,717.5C 737.473,717.662 735.473,717.495 733.5,717C 731.881,716.764 730.881,715.931 730.5,714.5 Z"/></g>
<g><path style="opacity:1" fill="#c2e3e9" d="M 273.5,721.5 C 275.163,723.438 275.829,725.772 275.5,728.5C 274.388,726.401 273.721,724.067 273.5,721.5 Z"/></g>
<g><path style="opacity:1" fill="#ddeff3" d="M 311.5,725.5 C 324.789,726.05 338.122,726.05 351.5,725.5C 343.658,726.26 335.658,726.926 327.5,727.5C 322.001,726.981 316.668,726.315 311.5,725.5 Z"/></g>
<g><path style="opacity:1" fill="#98cfda" d="M 428.5,728.5 C 426.562,730.163 424.228,730.829 421.5,730.5C 423.599,729.388 425.933,728.721 428.5,728.5 Z"/></g>
<g><path style="opacity:1" fill="#badfe6" d="M 412.5,735.5 C 409.551,736.368 406.551,737.368 403.5,738.5C 403.881,737.069 404.881,736.236 406.5,736C 408.473,735.505 410.473,735.338 412.5,735.5 Z"/></g>
<g><path style="opacity:1" fill="#98cfda" d="M 708.5,742.5 C 707.391,743.29 706.058,743.79 704.5,744C 704.833,744.333 705.167,744.667 705.5,745C 704.207,745.49 702.873,745.657 701.5,745.5C 703.229,743.273 705.562,742.273 708.5,742.5 Z"/></g>
<g><path style="opacity:1" fill="#cfe8ee" d="M 701.5,745.5 C 698.363,747.871 694.696,748.871 690.5,748.5C 690.97,747.307 691.97,746.64 693.5,746.5C 696.14,745.905 698.807,745.572 701.5,745.5 Z"/></g>
<g><path style="opacity:1" fill="#8cc9d6" d="M 298.5,747.5 C 303.36,747.46 307.693,748.793 311.5,751.5C 306.64,751.54 302.307,750.207 298.5,747.5 Z"/></g>
<g><path style="opacity:1" fill="#8ecad7" d="M 646.5,747.5 C 651.825,748.019 656.825,749.352 661.5,751.5C 655.935,751.861 650.935,750.527 646.5,747.5 Z"/></g>
<g><path style="opacity:1" fill="#9dd2dc" d="M 685.5,749.5 C 683.365,751.369 680.698,752.036 677.5,751.5C 680.053,750.745 682.72,750.078 685.5,749.5 Z"/></g>
<g><path style="opacity:1" fill="#c2e3e9" d="M 827.5,777.5 C 827.663,779.857 827.497,782.19 827,784.5C 826.329,785.252 825.496,785.586 824.5,785.5C 825.918,782.939 826.918,780.272 827.5,777.5 Z"/></g>
<g><path style="opacity:1" fill="#89c8d5" d="M 605.5,788.5 C 607.696,788.59 609.863,788.923 612,789.5C 613.376,789.684 614.209,790.351 614.5,791.5C 611.017,791.673 608.017,790.673 605.5,788.5 Z"/></g>
<g><path style="opacity:1" fill="#f0f8f9" d="M 262.5,791.5 C 321.429,792.496 380.429,792.829 439.5,792.5C 410.169,793.167 380.669,793.5 351,793.5C 321.159,793.5 291.659,792.833 262.5,791.5 Z"/></g>
<g><path style="opacity:1" fill="#f0f8f9" d="M 814.5,791.5 C 787.175,792.833 759.508,793.5 731.5,793.5C 703.665,793.5 675.998,793.167 648.5,792.5C 703.905,792.829 759.238,792.496 814.5,791.5 Z"/></g>
<g><path style="opacity:1" fill="#afdae2" d="M 849.5,804.5 C 849.771,806.38 849.104,807.713 847.5,808.5C 847.66,806.847 848.326,805.514 849.5,804.5 Z"/></g>
<g><path style="opacity:1" fill="#eff8f9" d="M 247.5,819.5 C 311.646,820.153 375.646,820.819 439.5,821.5C 376.499,821.667 313.499,821.5 250.5,821C 249.263,820.768 248.263,820.268 247.5,819.5 Z"/></g>
<g><path style="opacity:1" fill="#eff8f9" d="M 829.5,819.5 C 828.737,820.268 827.737,820.768 826.5,821C 767.168,821.5 707.834,821.667 648.5,821.5C 708.687,820.818 769.02,820.152 829.5,819.5 Z"/></g>
<g><path style="opacity:1" fill="#9fd2dd" d="M 892.5,863.5 C 892.586,864.496 892.252,865.329 891.5,866C 889.751,866.785 888.084,867.618 886.5,868.5C 887.895,866.139 889.895,864.472 892.5,863.5 Z"/></g>
<g><path style="opacity:1" fill="#c7e5eb" d="M 218.5,879.5 C 431.833,880.833 645.167,880.833 858.5,879.5C 752.169,880.833 645.502,881.5 538.5,881.5C 431.498,881.5 324.831,880.833 218.5,879.5 Z"/></g>
</svg>
