<?xml version="1.0" encoding="UTF-8" standalone="no"?>
<svg
   version="1.1"
   width="1080px"
   height="1080px"
   style="shape-rendering:geometricPrecision; text-rendering:geometricPrecision; image-rendering:optimizeQuality; fill-rule:evenodd; clip-rule:evenodd"
   id="svg15"
   sodipodi:docname="bento_1_circle_final.svg"
   inkscape:version="1.3 (0e150ed6c4, 2023-07-21)"
   xmlns:inkscape="http://www.inkscape.org/namespaces/inkscape"
   xmlns:sodipodi="http://sodipodi.sourceforge.net/DTD/sodipodi-0.dtd"
   xmlns="http://www.w3.org/2000/svg"
   xmlns:svg="http://www.w3.org/2000/svg">
  <defs
     id="defs15" />
  <sodipodi:namedview
     id="namedview15"
     pagecolor="#ffffff"
     bordercolor="#000000"
     borderopacity="0.25"
     inkscape:showpageshadow="2"
     inkscape:pageopacity="0.0"
     inkscape:pagecheckerboard="0"
     inkscape:deskcolor="#d1d1d1"
     inkscape:zoom="1.0226859"
     inkscape:cx="589.62384"
     inkscape:cy="524.59899"
     inkscape:window-width="1920"
     inkscape:window-height="991"
     inkscape:window-x="-9"
     inkscape:window-y="-9"
     inkscape:window-maximized="1"
     inkscape:current-layer="g1" />
  <g
     id="g1"
     style="display:inline">
    <rect
       style="clip-rule:evenodd;display:inline;fill:#000000;fill-opacity:1;fill-rule:evenodd;stroke:none;image-rendering:optimizeQuality;shape-rendering:geometricPrecision;text-rendering:geometricPrecision"
       id="rect16"
       width="753.89716"
       height="678.60529"
       x="163.29549"
       y="199.47473"
       ry="69.425026" />
    <rect
       style="clip-rule:evenodd;display:inline;fill:#ffffff;fill-opacity:1;fill-rule:evenodd;stroke:none;image-rendering:optimizeQuality;shape-rendering:geometricPrecision;text-rendering:geometricPrecision"
       id="rect16-6"
       width="692.29468"
       height="612.11383"
       x="194.58563"
       y="231.74271"
       ry="45.95742" />
  </g>
  <g
     id="g2">
    <path
       style="opacity:0.912"
       fill="#000000"
       d="M 330.5,524.5 C 330.5,534.833 330.5,545.167 330.5,555.5C 309.164,555.333 287.831,555.5 266.5,556C 263.513,557.104 260.513,558.27 257.5,559.5C 255.82,560.769 254.653,562.436 254,564.5C 252.35,634.797 252.016,705.131 253,775.5C 253.067,779.553 254.567,782.887 257.5,785.5C 261.511,786.962 265.511,788.296 269.5,789.5C 269.5,800.167 269.5,810.833 269.5,821.5C 246.931,822.641 231.098,812.975 222,792.5C 221.667,790.833 221.333,789.167 221,787.5C 220.333,710.833 220.333,634.167 221,557.5C 222.778,550.997 225.612,544.997 229.5,539.5C 225.44,534.51 222.606,528.844 221,522.5C 220.333,445.5 220.333,368.5 221,291.5C 224.577,280.25 231.244,271.25 241,264.5C 245.027,262.272 249.193,260.439 253.5,259C 289.167,258.333 324.833,258.333 360.5,259C 370.085,266.139 371.918,274.972 366,285.5C 364.442,287.359 362.609,288.859 360.5,290C 329.167,290.333 297.833,290.667 266.5,291C 258.114,291.601 253.614,296.101 253,304.5C 252.333,372.833 252.333,441.167 253,509.5C 253.574,517.908 258.074,522.574 266.5,523.5C 287.823,524.5 309.156,524.833 330.5,524.5 Z"
       id="path2" />
  </g>
  <g
     id="g3">
    <path
       style="opacity:0.916"
       fill="#000000"
       d="M 812.5,821.5 C 812.5,810.833 812.5,800.167 812.5,789.5C 814.911,788.007 817.578,787.007 820.5,786.5C 824.617,783.551 826.784,779.551 827,774.5C 827.98,704.469 827.647,634.469 826,564.5C 823.051,559.272 818.551,556.439 812.5,556C 794.836,555.5 777.17,555.333 759.5,555.5C 759.5,545.167 759.5,534.833 759.5,524.5C 777.17,524.667 794.836,524.5 812.5,524C 816.469,523.066 820.135,521.4 823.5,519C 824.829,517.002 825.829,514.835 826.5,512.5C 827.157,477.349 827.49,442.182 827.5,407C 827.65,371.129 827.15,335.296 826,299.5C 823.289,294.559 819.123,291.725 813.5,291C 766.168,290.5 718.835,290.333 671.5,290.5C 658.673,289.34 645.673,289.173 632.5,290C 631.584,290.278 630.918,290.778 630.5,291.5C 606.17,290.992 581.836,290.659 557.5,290.5C 543.961,289.194 530.294,289.194 516.5,290.5C 503.816,290.832 491.149,290.499 478.5,289.5C 474.309,287.787 471.476,284.787 470,280.5C 467.059,270.936 469.893,263.936 478.5,259.5C 594.165,258.333 709.832,258.167 825.5,259C 842.565,263.593 853.565,274.427 858.5,291.5C 859.667,368.498 859.833,445.498 859,522.5C 856.581,528.378 853.747,534.045 850.5,539.5C 853.426,545.469 856.259,551.469 859,557.5C 859.667,634.167 859.667,710.833 859,787.5C 851.581,809.954 836.081,821.287 812.5,821.5 Z"
       id="path3" />
  </g>
  <g
     id="g4">
    <path
       style="opacity:0.79"
       fill="#000000"
       d="M 411.5,259.5 C 416.844,259.334 422.177,259.501 427.5,260C 432.345,262.35 435.178,266.184 436,271.5C 435.812,287.198 427.979,293.198 412.5,289.5C 409.07,288.233 406.403,286.067 404.5,283C 403.408,277.874 403.241,272.707 404,267.5C 405.828,264.156 408.328,261.489 411.5,259.5 Z"
       id="path4" />
  </g>
  <g
     id="g5">
    <path
       style="opacity:0.937"
       fill="#58b2c4"
       d="M 557.5,290.5 C 552.139,297.384 547.472,304.884 543.5,313C 542.707,317.38 541.707,321.714 540.5,326C 539.912,340.166 539.246,354.333 538.5,368.5C 537.148,380.839 532.148,391.339 523.5,400C 477.738,426.507 468.071,463.007 494.5,509.5C 497.5,513.5 500.5,517.5 503.5,521.5C 504.642,522.826 505.976,523.826 507.5,524.5C 507.5,534.833 507.5,545.167 507.5,555.5C 507.833,634.836 507.5,714.169 506.5,793.5C 500.795,807.187 490.795,816.021 476.5,820C 407.514,821.44 338.514,821.94 269.5,821.5C 269.5,810.833 269.5,800.167 269.5,789.5C 333.837,789.833 398.17,789.5 462.5,788.5C 468.847,787.265 473.181,783.598 475.5,777.5C 476.657,708.515 476.823,639.515 476,570.5C 475.254,562.211 470.754,557.544 462.5,556.5C 418.505,555.5 374.505,555.167 330.5,555.5C 330.5,545.167 330.5,534.833 330.5,524.5C 374.835,524.667 419.168,524.5 463.5,524C 456.937,513.649 452.27,502.482 449.5,490.5C 448.167,473.167 448.167,455.833 449.5,438.5C 454.383,419.402 463.717,403.068 477.5,389.5C 483.595,385.992 489.595,382.326 495.5,378.5C 500.078,374.349 503.411,369.349 505.5,363.5C 506.263,349.002 506.93,334.502 507.5,320C 508.59,315.017 509.59,310.017 510.5,305C 512.217,300.005 514.217,295.172 516.5,290.5C 530.294,289.194 543.961,289.194 557.5,290.5 Z"
       id="path5" />
  </g>
  <g
     id="g6">
    <path
       style="opacity:0.934"
       fill="#58b2c4"
       d="M 671.5,290.5 C 666.987,296.627 662.653,302.96 658.5,309.5C 657.622,312.53 656.622,315.53 655.5,318.5C 653.093,335.063 651.926,351.729 652,368.5C 651.089,380.763 646.256,391.096 637.5,399.5C 626.356,406.819 616.023,415.152 606.5,424.5C 602.155,430.04 598.821,436.207 596.5,443C 595.584,450.129 594.251,457.129 592.5,464C 594.084,474.165 596.417,484.165 599.5,494C 604.484,505.119 611.15,514.952 619.5,523.5C 666.162,524.5 712.829,524.833 759.5,524.5C 759.5,534.833 759.5,545.167 759.5,555.5C 711.829,555.167 664.162,555.5 616.5,556.5C 607.792,557.253 602.959,561.92 602,570.5C 601.177,639.515 601.343,708.515 602.5,777.5C 604.465,784.453 609.132,788.12 616.5,788.5C 681.83,789.5 747.163,789.833 812.5,789.5C 812.5,800.167 812.5,810.833 812.5,821.5C 742.49,821.906 672.49,821.406 602.5,820C 585.704,815.87 575.204,805.37 571,788.5C 570.5,711.167 570.333,633.834 570.5,556.5C 571.167,556.5 571.5,556.167 571.5,555.5C 573.193,551.263 575.36,547.263 578,543.5C 578.667,536.833 578.667,530.167 578,523.5C 577.329,522.748 576.496,522.414 575.5,522.5C 573.028,515.951 570.028,509.617 566.5,503.5C 562.498,490.489 560.832,477.156 561.5,463.5C 560.412,447.936 563.079,433.103 569.5,419C 574.184,410.725 579.351,402.892 585,395.5C 591.815,388.665 599.648,383.165 608.5,379C 612.602,375.102 615.935,370.602 618.5,365.5C 618.942,347.271 620.275,329.104 622.5,311C 623.742,303.803 626.409,297.303 630.5,291.5C 630.918,290.778 631.584,290.278 632.5,290C 645.673,289.173 658.673,289.34 671.5,290.5 Z"
       id="path6" />
  </g>
  <g
     id="g7">
    <path
       style="opacity:0.779"
       fill="#000000"
       d="M 319.5,322.5 C 336.654,320.154 343.821,327.487 341,344.5C 338.531,351.572 333.531,355.239 326,355.5C 314.16,353.998 308.493,347.332 309,335.5C 310.81,329.851 314.31,325.518 319.5,322.5 Z"
       id="path7" />
  </g>
  <g
     id="g8">
    <path
       style="opacity:0.774"
       fill="#000000"
       d="M 441.5,322.5 C 454.323,320.725 461.99,326.059 464.5,338.5C 462.74,351.427 455.406,356.927 442.5,355C 432.164,350.48 428.664,342.646 432,331.5C 434.283,327.464 437.45,324.464 441.5,322.5 Z"
       id="path8" />
  </g>
  <g
     id="g9">
    <path
       style="opacity:0.877"
       fill="#000000"
       d="M 703.5,348.5 C 726.055,346.147 747.055,350.481 766.5,361.5C 786.438,375.39 794.271,394.39 790,418.5C 779.064,453.42 755.897,475.92 720.5,486C 686.89,490.786 664.39,477.286 653,445.5C 646.563,427.032 645.896,408.366 651,389.5C 656.15,376.191 664.816,365.858 677,358.5C 685.87,354.608 694.704,351.275 703.5,348.5 Z M 707.5,381.5 C 702.855,383.357 698.188,385.524 693.5,388C 687.764,392.301 683.598,397.801 681,404.5C 679.971,416.465 681.804,427.965 686.5,439C 691.103,447.439 698.103,452.605 707.5,454.5C 730.412,449.428 746.579,436.094 756,414.5C 758.573,404.619 756.073,396.452 748.5,390C 735.782,382.936 722.116,380.102 707.5,381.5 Z"
       id="path9" />
  </g>
  <g
     id="g10">
    <path
       style="opacity:0.777"
       fill="#000000"
       d="M 370.5,373.5 C 385.916,374.395 391.916,382.395 388.5,397.5C 387.002,401.419 384.335,404.253 380.5,406C 361.187,408.554 354.021,400.387 359,381.5C 360.046,379.91 361.213,378.41 362.5,377C 365.501,376.262 368.168,375.096 370.5,373.5 Z"
       id="path10" />
  </g>
  <g
     id="g11">
    <path
       style="opacity:0.782"
       fill="#000000"
       d="M 291.5,426.5 C 309.149,425.829 315.816,434.163 311.5,451.5C 308.489,457.321 303.656,459.988 297,459.5C 290.007,460.355 285.007,457.689 282,451.5C 281.333,446.167 281.333,440.833 282,435.5C 282.674,433.483 283.841,431.817 285.5,430.5C 288.022,429.697 290.022,428.364 291.5,426.5 Z"
       id="path11" />
  </g>
  <g
     id="g12">
    <path
       style="opacity:0.768"
       fill="#000000"
       d="M 371.5,459.5 C 385.998,459.163 392.831,466.163 392,480.5C 390.813,484.709 388.313,487.876 384.5,490C 366.334,495.817 357.834,489.317 359,470.5C 361.486,464.843 365.653,461.176 371.5,459.5 Z"
       id="path12" />
  </g>
  <g
     id="g13">
    <path
       style="opacity:0.917"
       fill="#000101"
       d="M 575.5,522.5 C 576.496,522.414 577.329,522.748 578,523.5C 578.667,530.167 578.667,536.833 578,543.5C 575.36,547.263 573.193,551.263 571.5,555.5C 570.833,555.5 570.5,555.833 570.5,556.5C 568.449,558.038 566.782,557.704 565.5,555.5C 546.155,554.23 526.822,554.23 507.5,555.5C 507.5,545.167 507.5,534.833 507.5,524.5C 530.179,524.175 552.846,523.508 575.5,522.5 Z"
       id="path13" />
  </g>
  <g
     id="g14">
    <path
       style="opacity:0.853"
       fill="#000000"
       d="M 298.5,588.5 C 309.187,588.168 319.854,588.501 330.5,589.5C 335.743,592.236 340.743,595.402 345.5,599C 359.826,601.777 374.16,601.61 388.5,598.5C 399.406,594.681 410.573,592.015 422,590.5C 441.039,591.23 453.372,600.563 459,618.5C 460.572,628.663 459.239,638.329 455,647.5C 452.694,650.895 449.86,653.728 446.5,656C 456.095,663.628 461.428,673.628 462.5,686C 461.23,697.897 456.564,708.23 448.5,717C 438.583,723.458 428.249,729.125 417.5,734C 396.986,740.363 376.319,745.697 355.5,750C 341.867,751.504 328.2,751.837 314.5,751C 281.202,743.193 267.202,722.359 272.5,688.5C 274.515,680.294 278.848,673.461 285.5,668C 282.988,664.989 280.322,662.156 277.5,659.5C 275.735,655.443 273.902,651.443 272,647.5C 271.333,637.167 271.333,626.833 272,616.5C 274.313,613.503 275.98,610.169 277,606.5C 279.345,604.486 281.345,602.153 283,599.5C 287.93,595.378 293.097,591.712 298.5,588.5 Z M 310.5,614.5 C 306.942,616.554 303.775,619.22 301,622.5C 300.209,625.851 299.042,629.018 297.5,632C 299.017,635.725 300.351,639.558 301.5,643.5C 306.863,648.852 313.196,652.685 320.5,655C 332.833,655.667 345.167,655.667 357.5,655C 368.549,652.043 379.882,650.043 391.5,649C 401.77,645.29 412.103,641.79 422.5,638.5C 425.165,636.346 427.999,634.346 431,632.5C 431.923,630.966 432.423,629.299 432.5,627.5C 430.842,622.345 427.342,619.011 422,617.5C 418.126,618.876 414.293,620.376 410.5,622C 402.957,623.04 395.624,624.707 388.5,627C 380.451,627.197 372.451,627.697 364.5,628.5C 347.109,629.633 331.442,625.133 317.5,615C 315.19,614.503 312.857,614.337 310.5,614.5 Z M 421.5,679.5 C 413.862,682.202 406.195,685.035 398.5,688C 379.083,692.143 359.416,693.143 339.5,691C 332.974,690.176 326.64,688.51 320.5,686C 311.743,684.218 305.076,687.051 300.5,694.5C 297.337,705.966 300.671,714.799 310.5,721C 324.58,724.716 338.913,725.216 353.5,722.5C 374.043,718.531 394.043,712.698 413.5,705C 419.073,701.479 424.74,698.145 430.5,695C 437.609,683.852 434.609,678.685 421.5,679.5 Z"
       id="path14" />
  </g>
  <g
     id="g15">
    <path
       style="opacity:0.851"
       fill="#000000"
       d="M 729.5,589.5 C 743.884,589.089 758.217,589.589 772.5,591C 789.917,595.279 802.75,605.446 811,621.5C 811.92,631.242 811.587,640.908 810,650.5C 808.001,653.823 806.001,657.156 804,660.5C 802.989,661.337 801.822,661.67 800.5,661.5C 800.52,663.143 799.853,664.476 798.5,665.5C 798.808,666.308 799.308,666.975 800,667.5C 800.725,674.499 801.892,681.332 803.5,688C 801.878,694.33 800.712,700.83 800,707.5C 797.103,713.452 793.769,719.119 790,724.5C 785.714,729.238 780.88,733.404 775.5,737C 771.234,738.087 767.234,739.754 763.5,742C 752.5,742.667 741.5,742.667 730.5,742C 726.982,740.214 723.316,738.714 719.5,737.5C 712.667,740.813 705.667,743.813 698.5,746.5C 693.994,747.255 689.661,748.422 685.5,750C 666.011,754.448 648.845,750.281 634,737.5C 631.235,733.739 628.902,729.739 627,725.5C 626.333,717.833 626.333,710.167 627,702.5C 629.516,693.068 631.183,683.401 632,673.5C 635.707,669.088 635.707,664.422 632,659.5C 628.507,630.121 639.674,608.621 665.5,595C 669.424,594.74 673.091,593.74 676.5,592C 683.833,591.333 691.167,591.333 698.5,592C 701.706,593.843 705.206,594.676 709,594.5C 715.94,593.015 722.774,591.348 729.5,589.5 Z M 742.5,616.5 C 740.302,617.165 737.969,617.832 735.5,618.5C 738.272,622.484 740.272,626.818 741.5,631.5C 749.373,631.293 757.039,632.126 764.5,634C 770.883,635.784 776.383,638.95 781,643.5C 784.536,638.618 785.369,633.284 783.5,627.5C 782.448,627.649 781.448,627.483 780.5,627C 776.583,623.593 772.25,620.76 767.5,618.5C 759.233,617.029 750.9,616.362 742.5,616.5 Z M 681.5,619.5 C 678.349,621.086 675.015,622.586 671.5,624C 667.658,626.844 664.492,630.344 662,634.5C 661.116,638.792 659.949,642.959 658.5,647C 661.907,668.612 674.574,677.945 696.5,675C 699.48,672.676 702.813,671.176 706.5,670.5C 709.517,666.949 712.017,662.949 714,658.5C 714.64,654.277 715.807,650.277 717.5,646.5C 715.973,641.76 714.14,637.094 712,632.5C 704.195,622.853 694.028,618.519 681.5,619.5 Z M 742.5,658.5 C 739.848,673.459 732.348,685.459 720,694.5C 719.349,696.235 719.515,697.902 720.5,699.5C 722.885,701.884 724.885,704.55 726.5,707.5C 729.914,710.25 733.58,712.584 737.5,714.5C 744.536,715.895 751.536,715.728 758.5,714C 761.167,711.474 764.167,709.641 767.5,708.5C 768.279,705.366 769.945,702.699 772.5,700.5C 773.516,696.066 774.85,691.733 776.5,687.5C 772.83,668.981 761.497,659.314 742.5,658.5 Z M 655.5,694.5 C 655.874,701.137 654.874,707.471 652.5,713.5C 653.877,715.289 654.877,717.289 655.5,719.5C 661.518,723.838 668.185,725.338 675.5,724C 682.238,722.252 688.905,720.252 695.5,718C 696.357,717.311 697.023,716.478 697.5,715.5C 696.121,711.789 694.787,708.122 693.5,704.5C 687.445,704.662 681.445,704.162 675.5,703C 668.694,700.467 662.027,697.634 655.5,694.5 Z"
       id="path15" />
  </g>
</svg>
